<svg width="1540" height="1330" viewBox="0 0 1540 1330" fill="none" xmlns="http://www.w3.org/2000/svg">
<g filter="url(#filter0_f_2885_24949)">
<g filter="url(#filter1_f_2885_24949)">
<ellipse cx="841.287" cy="661.5" rx="98.7945" ry="204.402" transform="rotate(-111.556 841.287 661.5)" fill="url(#paint0_linear_2885_24949)" fill-opacity="0.8"/>
</g>
<g style="mix-blend-mode:color-dodge">
<path d="M619.533 646.664C677.167 665.735 754.509 748.394 761.047 781.882C751.647 810.29 662.581 801.097 604.947 782.026C506.944 749.599 526.475 704.266 527.386 687.819C534.554 673.131 536.451 660.424 556.167 646.478C569.918 636.752 591.253 637.307 619.533 646.664Z" fill="url(#paint1_radial_2885_24949)" fill-opacity="0.8"/>
</g>
</g>
<g filter="url(#filter2_f_2885_24949)">
<g filter="url(#filter3_f_2885_24949)">
<ellipse cx="841.287" cy="661.5" rx="98.7945" ry="204.402" transform="rotate(-111.556 841.287 661.5)" fill="url(#paint2_linear_2885_24949)" fill-opacity="0.8"/>
</g>
<g style="mix-blend-mode:color-dodge">
<path d="M619.533 646.664C677.167 665.735 754.509 748.394 761.047 781.882C751.647 810.29 662.581 801.097 604.947 782.026C506.944 749.599 526.475 704.266 527.386 687.819C534.554 673.131 536.451 660.424 556.167 646.478C569.918 636.752 591.253 637.307 619.533 646.664Z" fill="url(#paint3_radial_2885_24949)" fill-opacity="0.8"/>
</g>
</g>
<defs>
<filter id="filter0_f_2885_24949" x="-244.153" y="-283.892" width="2011.05" height="1888.52" filterUnits="userSpaceOnUse" color-interpolation-filters="sRGB">
<feFlood flood-opacity="0" result="BackgroundImageFix"/>
<feBlend mode="normal" in="SourceGraphic" in2="BackgroundImageFix" result="shape"/>
<feGaussianBlur stdDeviation="142" result="effect1_foregroundBlur_2885_24949"/>
</filter>
<filter id="filter1_f_2885_24949" x="600.46" y="495.573" width="481.655" height="331.854" filterUnits="userSpaceOnUse" color-interpolation-filters="sRGB">
<feFlood flood-opacity="0" result="BackgroundImageFix"/>
<feBlend mode="normal" in="SourceGraphic" in2="BackgroundImageFix" result="shape"/>
<feGaussianBlur stdDeviation="23.626" result="effect1_foregroundBlur_2885_24949"/>
</filter>
<filter id="filter2_f_2885_24949" x="-283.674" y="-264.735" width="2107.64" height="1877.97" filterUnits="userSpaceOnUse" color-interpolation-filters="sRGB">
<feFlood flood-opacity="0" result="BackgroundImageFix"/>
<feBlend mode="normal" in="SourceGraphic" in2="BackgroundImageFix" result="shape"/>
<feGaussianBlur stdDeviation="142" result="effect1_foregroundBlur_2885_24949"/>
</filter>
<filter id="filter3_f_2885_24949" x="600.46" y="495.573" width="481.655" height="331.854" filterUnits="userSpaceOnUse" color-interpolation-filters="sRGB">
<feFlood flood-opacity="0" result="BackgroundImageFix"/>
<feBlend mode="normal" in="SourceGraphic" in2="BackgroundImageFix" result="shape"/>
<feGaussianBlur stdDeviation="23.626" result="effect1_foregroundBlur_2885_24949"/>
</filter>
<linearGradient id="paint0_linear_2885_24949" x1="841.287" y1="457.098" x2="793.312" y2="929.891" gradientUnits="userSpaceOnUse">
<stop offset="0.347786" stop-color="#3ADCFF"/>
<stop offset="0.836305" stop-color="#41E9FF" stop-opacity="0"/>
</linearGradient>
<radialGradient id="paint1_radial_2885_24949" cx="0" cy="0" r="1" gradientUnits="userSpaceOnUse" gradientTransform="translate(753.485 806.155) rotate(-125.206) scale(286.274 165.495)">
<stop stop-color="#27FECA"/>
<stop offset="0.378472" stop-color="#25D4EB"/>
<stop offset="0.640625" stop-color="#58FFD7"/>
<stop offset="0.994792" stop-color="white"/>
</radialGradient>
<linearGradient id="paint2_linear_2885_24949" x1="841.287" y1="457.098" x2="793.312" y2="929.891" gradientUnits="userSpaceOnUse">
<stop offset="0.347786" stop-color="#3ADCFF"/>
<stop offset="0.836305" stop-color="#41E9FF" stop-opacity="0"/>
</linearGradient>
<radialGradient id="paint3_radial_2885_24949" cx="0" cy="0" r="1" gradientUnits="userSpaceOnUse" gradientTransform="translate(753.485 806.155) rotate(-125.206) scale(286.274 165.495)">
<stop stop-color="#27FECA"/>
<stop offset="0.378472" stop-color="#25D4EB"/>
<stop offset="0.640625" stop-color="#58FFD7"/>
<stop offset="0.994792" stop-color="white"/>
</radialGradient>
</defs>
</svg>
