<svg width="1866" height="1690" viewBox="0 0 1866 1690" fill="none" xmlns="http://www.w3.org/2000/svg">
<g filter="url(#filter0_f_2885_24944)">
<path d="M1029.92 926.326C862.766 980.917 585.147 1028.1 511.928 959.971C484.597 876.289 724.266 779.098 891.416 724.507C1175.64 631.678 1385.73 627.631 1395.92 755.007C1404.68 802.272 1293.9 926.326 1223.23 926.326C1116.92 926.326 1111.94 899.538 1029.92 926.326Z" fill="white"/>
<path d="M1029.92 926.326C862.766 980.917 585.147 1028.1 511.928 959.971C484.597 876.289 724.266 779.098 891.416 724.507C1175.64 631.678 1385.73 627.631 1395.92 755.007C1404.68 802.272 1293.9 926.326 1223.23 926.326C1116.92 926.326 1111.94 899.538 1029.92 926.326Z" fill="url(#paint0_radial_2885_24944)" fill-opacity="0.8"/>
<g filter="url(#filter1_f_2885_24944)">
<ellipse cx="811.54" cy="1093.86" rx="90.9489" ry="94.1401" transform="rotate(32.0479 811.54 1093.86)" fill="url(#paint1_linear_2885_24944)" fill-opacity="0.8"/>
</g>
<g style="mix-blend-mode:color-dodge">
<path d="M844.462 1059.32C807.274 1071.46 728.839 1037.62 708.96 1011.47C699.268 981.795 746.6 945.208 783.788 933.062C847.023 912.409 860.316 962.037 868.101 976.945C872.005 993.446 877.447 1005.56 874.959 1027.7C873.224 1043.15 862.71 1053.36 844.462 1059.32Z" fill="url(#paint2_radial_2885_24944)"/>
</g>
</g>
<g filter="url(#filter2_f_2885_24944)">
<path d="M1029.92 926.326C862.766 980.917 585.147 1028.1 511.928 959.971C484.597 876.289 724.266 779.098 891.416 724.507C1175.64 631.678 1385.73 627.631 1395.92 755.007C1404.68 802.272 1293.9 926.326 1223.23 926.326C1116.92 926.326 1111.94 899.538 1029.92 926.326Z" fill="white"/>
<path d="M1029.92 926.326C862.766 980.917 585.147 1028.1 511.928 959.971C484.597 876.289 724.266 779.098 891.416 724.507C1175.64 631.678 1385.73 627.631 1395.92 755.007C1404.68 802.272 1293.9 926.326 1223.23 926.326C1116.92 926.326 1111.94 899.538 1029.92 926.326Z" fill="url(#paint3_radial_2885_24944)" fill-opacity="0.8"/>
<g filter="url(#filter3_f_2885_24944)">
<ellipse cx="811.54" cy="1093.86" rx="90.9489" ry="94.1401" transform="rotate(32.0479 811.54 1093.86)" fill="url(#paint4_linear_2885_24944)" fill-opacity="0.8"/>
</g>
<g style="mix-blend-mode:color-dodge">
<path d="M844.462 1059.32C807.274 1071.46 728.839 1037.62 708.96 1011.47C699.268 981.795 746.6 945.208 783.788 933.062C847.023 912.409 860.316 962.037 868.101 976.945C872.005 993.446 877.447 1005.56 874.959 1027.7C873.224 1043.15 862.71 1053.36 844.462 1059.32Z" fill="url(#paint5_radial_2885_24944)"/>
</g>
</g>
<defs>
<filter id="filter0_f_2885_24944" x="-294.527" y="-222.719" width="2458.19" height="2209.78" filterUnits="userSpaceOnUse" color-interpolation-filters="sRGB">
<feFlood flood-opacity="0" result="BackgroundImageFix"/>
<feBlend mode="normal" in="SourceGraphic" in2="BackgroundImageFix" result="shape"/>
<feGaussianBlur stdDeviation="149" result="effect1_foregroundBlur_2885_24944"/>
</filter>
<filter id="filter1_f_2885_24944" x="689.22" y="970.148" width="244.639" height="247.433" filterUnits="userSpaceOnUse" color-interpolation-filters="sRGB">
<feFlood flood-opacity="0" result="BackgroundImageFix"/>
<feBlend mode="normal" in="SourceGraphic" in2="BackgroundImageFix" result="shape"/>
<feGaussianBlur stdDeviation="15.2252" result="effect1_foregroundBlur_2885_24944"/>
</filter>
<filter id="filter2_f_2885_24944" x="-297.373" y="-297.911" width="2400.5" height="2284.68" filterUnits="userSpaceOnUse" color-interpolation-filters="sRGB">
<feFlood flood-opacity="0" result="BackgroundImageFix"/>
<feBlend mode="normal" in="SourceGraphic" in2="BackgroundImageFix" result="shape"/>
<feGaussianBlur stdDeviation="149" result="effect1_foregroundBlur_2885_24944"/>
</filter>
<filter id="filter3_f_2885_24944" x="689.22" y="970.148" width="244.639" height="247.433" filterUnits="userSpaceOnUse" color-interpolation-filters="sRGB">
<feFlood flood-opacity="0" result="BackgroundImageFix"/>
<feBlend mode="normal" in="SourceGraphic" in2="BackgroundImageFix" result="shape"/>
<feGaussianBlur stdDeviation="15.2252" result="effect1_foregroundBlur_2885_24944"/>
</filter>
<radialGradient id="paint0_radial_2885_24944" cx="0" cy="0" r="1" gradientUnits="userSpaceOnUse" gradientTransform="translate(613.944 1000.98) rotate(-6.86227) scale(725.394 413.051)">
<stop stop-color="#FE2727"/>
<stop offset="0.286458" stop-color="#F7CF00"/>
<stop offset="0.640625" stop-color="#F258FF"/>
<stop offset="0.994792" stop-color="#DFE6FC"/>
</radialGradient>
<linearGradient id="paint1_linear_2885_24944" x1="811.54" y1="999.725" x2="811.54" y2="1188" gradientUnits="userSpaceOnUse">
<stop offset="0.380208" stop-color="#FFD43A"/>
<stop offset="0.770833" stop-color="#FFD43A" stop-opacity="0"/>
</linearGradient>
<radialGradient id="paint2_radial_2885_24944" cx="0" cy="0" r="1" gradientUnits="userSpaceOnUse" gradientTransform="translate(706.487 1002.91) rotate(-0.533921) scale(166.031 142.378)">
<stop stop-color="#27FECA"/>
<stop offset="0.286458" stop-color="#25DFEB"/>
<stop offset="0.640625" stop-color="#FF58BC"/>
<stop offset="0.994792" stop-color="white"/>
</radialGradient>
<radialGradient id="paint3_radial_2885_24944" cx="0" cy="0" r="1" gradientUnits="userSpaceOnUse" gradientTransform="translate(613.944 1000.98) rotate(-6.86227) scale(725.394 413.051)">
<stop stop-color="#FE2727"/>
<stop offset="0.286458" stop-color="#F7CF00"/>
<stop offset="0.640625" stop-color="#F258FF"/>
<stop offset="0.994792" stop-color="#DFE6FC"/>
</radialGradient>
<linearGradient id="paint4_linear_2885_24944" x1="811.54" y1="999.725" x2="811.54" y2="1188" gradientUnits="userSpaceOnUse">
<stop offset="0.380208" stop-color="#FFD43A"/>
<stop offset="0.770833" stop-color="#FFD43A" stop-opacity="0"/>
</linearGradient>
<radialGradient id="paint5_radial_2885_24944" cx="0" cy="0" r="1" gradientUnits="userSpaceOnUse" gradientTransform="translate(706.487 1002.91) rotate(-0.533921) scale(166.031 142.378)">
<stop stop-color="#27FECA"/>
<stop offset="0.286458" stop-color="#25DFEB"/>
<stop offset="0.640625" stop-color="#FF58BC"/>
<stop offset="0.994792" stop-color="white"/>
</radialGradient>
</defs>
</svg>
