<svg width="1085" height="424" viewBox="0 0 1085 424" fill="none" xmlns="http://www.w3.org/2000/svg">
<path d="M1007.65 260.468L1006.59 253.388L1003.92 252.703L1005.6 251.713L1003.92 247.679L1002.94 249.353L998.9 246.993L998.215 241.588H1003.62L1005.6 244.253L1014.05 237.554L1015.34 236.183L1020.06 229.18L1016.41 223.394L1015.72 219.359L1019.76 219.055V216.01H1020.75L1022.42 219.055L1025.16 215.705V219.74L1022.12 220.044L1025.47 228.799L1038.56 227.809L1042.29 230.169V236.868L1046.02 240.903L1048.99 241.588L1048.31 240.903L1050.67 240.218L1050.06 241.284L1054.09 243.263L1055.08 246.613L1057.06 245.623L1057.75 247.679L1059.42 243.644L1059.12 247.983L1061.78 248.973L1062.47 246.308L1061.1 245.623L1066.2 246.308L1062.16 242.578L1063.84 241.284L1061.1 240.903L1067.87 236.564L1064.14 233.519H1067.19L1069.24 229.484L1074.27 229.789L1072.59 226.82V224.079L1077.62 227.809L1077.92 222.785L1084.01 219.74L1077.92 218.065L1078.61 216.39L1070.23 205.961L1060.49 205.276L1059.42 207.94L1058.74 205.961L1060.11 204.21L1056.76 202.535L1056.07 204.59L1051.73 203.905L1054.4 205.276L1054.09 210.985L1056.76 212.66L1055.08 216.01L1055.39 212.964L1050.36 208.93L1048.31 198.5L1049.37 197.815L1045.64 192.791L1042.29 192.106L1045.64 197.511L1038.56 192.791L1040.92 190.431L1034.91 188.756L1035.9 187.386L1035.59 185.711L1032.55 183.732L1028.13 183.046L1027.14 179.697L1023.41 178.327L1022.42 174.292L1017.4 171.932L1015.04 170.942L1004.61 161.883L989.461 153.433L970.276 153.737L954.442 149.398L951.778 150.388V155.793L949.418 158.153L952.767 158.838L955.812 167.593L948.047 173.987L937.618 165.537L936.628 158.838L934.268 155.108L927.874 160.513L915.769 158.838L909.375 154.803L898.641 156.097L890.876 162.188V159.142L880.446 154.118L882.806 146.049L882.426 142.318L875.041 131.889L847.483 131.204L833.323 134.934L828.299 131.584L831.953 127.169L826.929 121.84L821.219 122.449L817.87 118.11L809.8 116.739L812.845 112.02L816.499 113.085L814.825 106.691L812.845 105.016L757.272 91.5413L755.597 93.5207L757.653 97.5554L748.213 109.051L749.203 113.085L747.832 115.445L749.888 121.459L746.158 120.089L736.413 127.854L720.579 117.805L716.925 118.11L715.554 123.819L707.866 122.145L701.775 110.345L697.36 119.785L697.055 127.169L692.336 136.913L689.976 132.269L683.276 129.91L677.567 117.12L675.892 117.805L675.207 112.02L680.536 106.31L679.927 105.625L680.917 101.59L678.557 96.9464L680.231 88.1918L671.477 77.3817L663.712 75.4024L661.428 78.3713L642.929 68.3225L642.244 71.6721L639.503 70.6825L638.209 77.7623L640.188 84.766L638.514 86.8215L624.354 89.4859L607.53 84.157L606.921 78.0668L609.89 76.6965L588.346 71.6721L574.262 76.392L579.287 80.7313L573.577 83.0912L571.522 82.7867L574.262 80.7313L572.207 80.1222L572.892 73.3469L569.238 64.2878L569.542 69.6928L567.182 71.9766L559.417 69.3122L558.808 65.9626L560.102 64.2878L556.068 67.3329L551.043 64.2878L547.313 69.3122L548.683 74.0321L554.393 69.6928L556.753 72.6618L548.683 78.0668L544.649 75.4024L546.628 78.3713L545.334 79.7416L534.524 84.766L526.835 84.157L526.454 85.4512V88.8008L529.195 91.1607L524.475 88.8008L520.745 91.1607L531.859 74.0321L538.558 74.3366L553.708 52.488L562.843 48.4533V45.1037L566.878 44.114L565.507 42.7438L571.522 39.0135L575.632 32.3143L574.567 27.8989L575.632 26.2241L570.227 24.5493L567.182 18.1546L573.577 24.5493L576.241 18.8398L575.937 15.4902H574.262L571.522 7.04002L569.542 11.0748L567.487 7.42066L568.857 4.68009L557.742 -6.73902L538.558 -7.72867L533.23 0.645332H525.16L531.859 -7.72867L533.23 -12.144L532.544 -14.4279L522.115 -15.7982L522.419 -19.1478L512.98 -13.4382L524.475 -24.9334L522.419 -31.252L511.685 -36.3525L504.225 -33.612L493.187 -17.473L490.141 -9.78411L493.491 -4.68358L491.816 -5.36872V-2.01912L476.667 0.340827L483.062 6.73552L482.072 12.8257L479.331 10.0851L475.297 6.05038L468.597 11.0748L469.587 14.1199L461.213 17.165L461.898 14.1199L460.147 13.4347L455.808 17.165L458.168 10.7703L456.113 9.39997L436.928 12.1406V14.805L441.039 14.5005L440.354 17.4695L412.72 27.2899L404.65 37.0342H397.571L402.671 39.3941L398.941 41.0689L396.581 48.4533L390.871 44.114L389.501 48.1488L395.591 51.1178L390.567 55.8376L395.896 58.5782L397.571 63.2981L395.591 63.9071L395.896 67.3329L358.593 74.0321L355.548 75.4024L357.223 77.3817L353.873 80.7313L355.548 81.7971L353.873 84.157L358.593 90.1711L357.223 94.5864L358.213 100.296L367.348 105.016L367.653 106.691L366.967 108.67L375.037 113.39L376.027 118.414L373.743 125.875L376.407 137.979V143.689L372.677 145.363L373.058 149.398L366.967 145.363L367.653 136.609L366.967 127.169L371.992 123.134L373.743 117.12L361.943 115.75L357.223 109.051L347.098 102.275L334.994 106.31L334.689 108.67L339.029 110.345L333.319 115.75L330.655 116.435L327.914 111.03L325.25 112.4L327.305 119.099L335.375 125.19L338.039 123.134L341.389 131.889L321.215 123.819L319.845 122.145L321.9 121.459V118.11L319.845 110.04L322.585 104.331L321.519 98.9257L322.585 98.2406L318.855 91.1607L316.876 91.8459L318.55 104.331L307.74 113.39L305.38 119.785L313.831 137.294L309.111 153.433L311.471 160.817L310.481 165.918L319.159 168.582L325.554 165.537L335.984 172.312L339.409 182.742L335.679 185.406L335.375 191.801L344.129 195.151L336.669 195.836L333.319 192.486L334.689 184.417L333.319 182.742L334.004 179.012L330.274 174.977L328.98 170.257L315.505 174.292L313.831 180.686L316.876 187.766L316.495 193.171L311.471 199.185L308.425 207.255L301.041 211.975L300.356 217.38L298.986 217.684L286.196 215.705L285.511 209.995L284.217 208.625L288.556 209.615L298.301 205.58L294.646 201.926L299.671 202.535L303.02 195.151L305.761 192.791V185.406L308.121 180.382V176.956L301.726 169.267L303.02 153.737L301.346 145.363L303.401 142.699L303.706 133.564L302.335 126.864L297.006 120.47L303.02 105.32L302.335 94.2058L281.172 89.4859L278.127 96.9464L274.777 114.38L264.348 125.19L263.358 129.91H266.023L262.673 134.934L268.383 136.913L266.708 145.059L267.697 149.094L265.033 150.083L264.652 158.153L273.102 160.132L272.798 162.492L275.462 169.572L279.497 172.312L274.092 184.036L266.023 172.921L246.534 159.523L226.969 153.737L221.26 158.153L225.675 167.212L224.609 171.627L218.215 175.281L218.9 179.316L216.235 182.057L213.571 179.697L215.55 174.977L211.515 169.267L201.39 178.327L188.982 177.641L183.957 185.102L179.237 182.057L178.552 177.337L179.923 173.607L177.563 172.617L182.587 170.257L175.203 171.932L174.137 173.987L174.518 176.347L173.147 176.956L171.168 174.292L168.808 177.337L170.102 178.327L168.808 181.676L166.753 178.707L163.784 179.316L139.88 195.151L137.52 201.926V205.276L130.44 210.985L129.755 207.255L126.024 207.636L119.63 197.511L121.99 192.791L130.44 190.811L128.765 184.417L124.73 179.316L108.211 175.662L113.92 182.057L113.616 192.106L111.941 199.566L116.661 205.58L113.616 216.695L113.92 223.394L111.56 219.359L109.2 220.729L110.266 217.38L101.816 212.964L96.1064 220.729L85.6769 227.809L85.9814 232.529L92.3761 246.004L76.6178 240.903L74.2578 243.644L73.5727 241.284L75.552 240.218L66.1883 234.889L63.4478 239.228L64.5135 242.273L68.8528 247.679L72.583 246.308L74.943 254.682L70.2231 256.433L61.4684 252.703L57.4337 247.679L51.039 246.308L52.7138 243.644L52.3332 239.609L48.9836 232.529L51.3435 230.854L52.0287 223.394L33.2252 203.905L36.1942 202.535L43.274 209.31L49.3642 209.615L49.6687 212.66L78.9777 220.044L86.6666 216.695L94.4316 208.625L95.8019 202.535L93.7464 201.241L93.0613 194.161L85.9814 186.092L76.2371 182.742L59.1085 166.222L42.5889 165.537L41.2947 162.188L39.2393 163.862L39.5438 161.883L33.2252 159.142L34.2149 155.793L39.2393 158.838L40.6096 155.793L32.5401 152.063L32.8446 155.108L31.8549 154.803L30.8653 157.468L25.7647 155.108V158.838L21.73 157.468L20.7403 161.502L14.0411 168.278L10.6154 171.627L11.6812 172.312L10.6154 180.382L16.0204 185.406L20.4358 194.466L15.0308 205.58L21.0448 224.46L18.6849 232.529V239.609L20.7403 239.914L21.0448 244.633L24.0899 248.288L22.1106 256.738L25.4602 261.458L29.495 266.482V271.506L19.37 286.656L4.2207 300.815L10.6154 299.445V303.175L9.32123 301.805L10.3109 304.85L18.6849 306.906L21.73 309.875L14.0411 309.57L8.63608 313.605L8.94059 317.335L6.27613 321.674L0.871094 323.349L2.54589 330.124L3.61168 330.429L4.2207 333.093L5.59099 334.464L5.8955 336.519L3.61168 339.184L3.91619 340.173L6.27613 343.218L5.59099 347.938L7.26579 348.928L8.94059 352.277L9.32123 357.378L9.62573 357.987L16.0204 359.053L17.3907 360.042L17.0101 362.402L22.4151 360.728L27.135 363.773L26.8305 366.742L27.8202 368.797L26.8305 372.832L30.4846 379.531L32.8446 381.586L33.2252 384.251L36.1942 383.946L37.869 384.632L38.2496 386.306L39.2393 386.611V388.286L35.509 391.331L31.1698 389.96L29.495 391.635L30.8653 393.691L32.8446 402.445L34.5194 403.435L37.26 400.39L46.0146 400.085L50.0493 405.49V406.48L48.2984 407.165L49.3642 410.819L52.7138 412.19L54.6931 411.885L56.3679 414.245L56.7486 418.584L58.1188 420.259H61.773L63.1432 421.629H64.818L69.5379 419.955L73.8772 424.979L76.2371 424.294L79.2822 426.349L81.3377 425.969L88.0369 429.014L87.3517 429.699L88.3414 432.363L87.3517 434.038L85.3724 434.723L87.7324 436.398L85.3724 437.768L85.6769 441.499L86.6666 441.803L85.3724 446.828H81.6422L79.9674 445.838L77.912 448.198L76.2371 448.883L75.2475 450.558L75.552 454.212L80.957 452.918L82.3273 454.593L76.2371 456.572L76.6178 457.942L72.2024 458.323L71.5173 459.617L76.6178 463.652L72.8875 464.717L69.5379 470.427H65.8077L64.5135 472.102L69.1573 477.126L70.9082 476.822L78.2926 481.542L85.3724 487.86L91.082 487.251L98.4663 489.916L106.231 490.22L113.311 495.625L117.955 493.95L121.381 494.636L124.73 496.31V498.975L129.45 501.715L134.17 504.684L135.16 507.425L139.194 507.729L142.544 503.01L141.554 502.02L136.454 491.971L136.834 484.511L136.149 486.871L133.789 481.846L130.44 478.116L134.779 471.417L135.464 467.001L136.454 467.686L137.139 463.347L136.149 461.672L138.509 461.977L140.489 466.392L143.534 462.358L146.579 461.292L143.534 459.312L142.544 458.932L142.849 457.257H146.579L143.914 450.558L141.554 447.513L136.149 446.828V447.893L134.779 446.523L133.789 442.108L130.44 440.813L131.81 435.713L134.17 433.734L132.419 431.678L133.485 425.969L135.845 424.294L136.834 419.574L142.849 427.339L145.894 424.979L143.914 418.584L145.589 418.28L148.939 416.224L149.624 413.56L155.029 411.504L157.693 407.85L161.728 407.165L162.413 409.145L164.088 408.84L164.773 409.525L166.067 406.785L168.123 406.48H169.112L170.483 409.145H176.877L182.892 416.224L183.577 419.269L184.566 418.889V414.55L185.632 414.245L187.611 417.214L191.342 418.889L196.062 414.854L198.041 415.235V414.245L200.781 413.864L203.141 415.92L205.501 413.864L208.166 413.56L209.841 413.864L211.896 418.28H215.931H215.55L216.235 419.574H218.215L220.27 416.224L223.62 418.28L229.025 416.91L231.004 411.2L226.36 409.83L225.294 408.155L222.325 407.47L221.945 405.795L219.966 405.11V404.425L225.98 401.075L226.665 399.096L224.305 396.051L226.969 393.31H233.059L234.43 392.32L232.07 390.341L228.035 389.96L227.654 387.981L230.014 386.992L229.329 386.306L226.665 386.611L227.654 383.946L226.36 382.576L229.71 381.586L230.395 382.576L236.105 382.272L236.79 383.261L237.779 381.586H240.824L244.174 379.227L246.838 380.216L247.219 379.227L249.884 378.237H253.614L254.603 375.496L259.628 374.507L274.092 371.157L274.777 368.416L276.452 368.112L279.497 366.057L283.836 366.742L287.262 368.797L290.612 367.427L292.286 368.416L292.972 373.136L294.646 374.507L294.266 377.171L292.972 378.846L293.961 380.597L299.671 379.912L300.051 377.856L301.041 378.237L302.335 380.597L302.031 382.576H303.706L303.02 381.206L303.706 380.901L308.121 382.881L310.481 381.586L310.785 383.566L309.111 384.251L308.121 386.306L308.73 387.981L312.156 386.306L315.81 387.296V385.621L320.225 383.946L323.27 380.216L325.935 379.912L330.959 377.552L331.644 379.227L329.284 380.597V382.272L338.724 390.341L353.188 416.91L354.863 415.539L356.538 412.19L357.528 411.885L360.573 413.864L360.268 414.854L361.943 417.595H370.012L371.002 415.92H372.677L374.047 414.55L375.722 415.235L380.442 418.584L381.127 422.619L384.477 423.989L384.781 425.664L387.141 428.709L393.917 430.384L394.906 428.709L396.581 428.024L400.311 433.734L397.951 436.779L400.996 437.768L403.28 436.094L406.706 431.374L422.464 421.934L430.229 419.269L446.368 420.944L450.403 425.284H469.968L471.262 424.675L470.577 420.564L471.947 418.28L470.272 410.515L479.331 402.75L497.221 409.83L498.896 417.899L503.921 421.629L508.336 422.924L517.7 418.584L521.734 419.574L537.264 427.339L542.289 431.374L551.043 433.049L556.753 434.038L570.532 430.003L580.961 423.304L588.346 426.654L593.066 425.969L602.886 430.003L611.945 424.675L612.63 420.944L616.665 409.525L621.994 404.805L621.689 399.705H616.97L617.655 397.725L623.06 391.635L641.178 388.971L646.583 392.701L654.653 394.376L659.677 401.456L660.743 407.47L664.778 416.529L667.137 429.318L678.252 431.374L687.311 436.398L688.986 441.118V445.153L691.041 448.502L697.36 448.883L715.554 441.118L714.565 443.173L715.25 449.873L712.205 452.918L708.855 464.337L704.44 473.396L702.765 474.766L696.066 472.406L690.356 477.811L692.031 482.531V489.916L687.616 494.94V496.995L688.301 498.67L688.986 498.366L688.681 496.615H692.031L696.066 489.231L697.36 492.276L699.415 490.601V494.636L705.506 496.006L710.53 494.636L717.229 489.231L737.403 463.652L740.829 456.267L746.158 447.893L752.248 441.118L754.608 425.284L753.237 418.28L755.597 410.819L759.632 402.75L757.653 400.39L758.338 398.03L757.653 394.68L759.328 390.646L752.552 385.621L748.898 379.531L741.514 379.227V384.936L739.154 387.981L739.458 384.936L737.784 386.306L732.074 387.601L734.434 384.251L732.379 381.586L734.434 379.227L731.389 380.597V383.566L728.724 385.621V375.877L721.949 376.181L718.6 374.202L718.904 372.147L734.739 357.682L744.863 344.208L752.552 337.813L755.597 331.799L765.037 321.674L771.051 318.325L786.581 317.335L790.235 320.685L792.976 316.954L800.056 319.695L805.385 317.64L807.059 319.999L808.81 319.695L808.125 317.335L810.485 316.65L810.105 313.909L811.475 313.3L822.209 316.954L825.635 315.28L830.659 319.01L823.884 321.674L825.635 324.339L833.323 322.359L835.379 323.73L840.403 319.999L848.777 320.989L850.528 320.304L850.148 318.325L844.134 316.65L845.123 314.975L844.134 311.93H845.428L848.473 305.535L855.857 299.445L864.307 286.656L876.031 283.306L881.817 286.656L885.471 283.002L884.177 288.33L882.121 291.756L882.806 294.116L881.817 296.476L885.471 296.095L883.796 301.805L898.641 287.341L901.305 286.351L902.98 288.711L904.35 286.656L902.675 284.981L902.98 280.261L906.33 274.551L912.039 272.572L915.769 274.932L915.465 276.226L910.364 279.271L909.375 286.656L908.004 288.711V292.746L906.33 294.725L907.395 297.466L895.596 303.48L894.606 306.906L885.851 315.584L871.996 334.159L865.601 337.813L861.947 337.509L863.241 341.163L861.567 346.568L855.553 351.288L853.497 366.057L853.878 375.496L861.567 416.224L871.006 406.099L873.366 394.376L880.751 391.331L882.426 392.32L882.121 382.576L888.82 376.181L892.855 377.171L896.281 374.507L893.54 365.447L895.215 360.347L898.641 357.378L897.575 355.323L901.99 353.343L900.315 356.997L902.295 360.042L904.35 356.693L903.97 352.277L901.001 350.983L900.62 345.578L903.97 337.813L900.315 335.834L897.27 338.498L895.9 336.519L896.281 332.408L901.99 321.674H903.665L906.025 311.549L909.07 309.875L910.364 311.549L912.724 308.885L915.769 311.93L917.444 306.906L923.154 302.871L924.219 303.86L923.839 311.93L928.863 303.86L936.628 300.815L944.698 302.871L951.092 310.255L952.463 303.48L962.892 297.085L962.512 294.725L964.871 295.41L964.567 293.431L969.972 290.386L971.951 286.047L974.692 287.036L982.076 282.621L982.761 279.956L996.54 274.551L995.17 269.527L998.215 273.866L999.586 272.572L1008.64 277.292L1011.99 271.506L1008.64 267.167L1011.31 266.863L1007.65 260.468Z" fill="white" fill-opacity="0.08"/>
</svg>
