<svg width="989" height="498" viewBox="0 0 989 498" fill="none" xmlns="http://www.w3.org/2000/svg">
    <path d="M919.223 271.598L918.251 265.135L915.819 264.509L917.348 263.606L915.819 259.923L914.916 261.451L911.234 259.297L910.609 254.363H915.542L917.348 256.795L925.059 250.68L926.24 249.429L930.547 243.035L927.213 237.753L926.587 234.07L930.269 233.792V231.012H931.172L932.701 233.792L935.202 230.734V234.417L932.423 234.695L935.48 242.687L947.429 241.784L950.833 243.938V250.054L954.237 253.737L956.946 254.363L956.321 253.737L958.474 253.112L957.919 254.085L961.601 255.892L962.504 258.95L964.31 258.046L964.935 259.923L966.464 256.239L966.186 260.2L968.617 261.104L969.242 258.672L967.992 258.046L972.647 258.672L968.965 255.266L970.493 254.085L967.992 253.737L974.175 249.776L970.771 246.996H973.55L975.425 243.313L980.01 243.591L978.482 240.881V238.379L983.067 241.784L983.345 237.197L988.903 234.417L983.345 232.889L983.97 231.36L976.329 221.839L967.436 221.213L966.464 223.646L965.838 221.839L967.089 220.24L964.032 218.711L963.407 220.588L959.447 219.962L961.879 221.213L961.601 226.425L964.032 227.954L962.504 231.012L962.782 228.232L958.197 224.549L956.321 215.028L957.294 214.403L953.889 209.816L950.833 209.19L953.889 214.125L947.429 209.816L949.582 207.661L944.094 206.133L944.997 204.882L944.719 203.353L941.94 201.546L937.911 200.92L937.008 197.863L933.604 196.612L932.701 192.928L928.116 190.774L925.962 189.87L916.445 181.6L902.62 173.886L885.113 174.164L870.663 170.203L868.232 171.107V176.041L866.078 178.195L869.135 178.821L871.914 186.813L864.828 192.65L855.31 184.936L854.407 178.821L852.254 175.415L846.418 180.35L835.372 178.821L829.537 175.137L819.741 176.319L812.655 181.878V179.099L803.138 174.512L805.291 167.145L804.944 163.74L798.205 154.219L773.057 153.594L760.135 156.999L755.55 153.941L758.885 149.91L754.3 145.046L749.089 145.602L746.033 141.64L738.669 140.389L741.448 136.081L744.782 137.054L743.254 131.216L741.448 129.687L690.734 117.386L689.206 119.193L691.081 122.876L682.467 133.37L683.37 137.054L682.12 139.208L683.995 144.698L680.591 143.447L671.699 150.536L657.249 141.362L653.914 141.64L652.664 146.852L645.647 145.324L640.09 134.552L636.06 143.169L635.782 149.91L631.475 158.806L629.322 154.566L623.208 152.412L617.998 140.737L616.47 141.362L615.844 136.081L620.707 130.868L620.152 130.243L621.055 126.56L618.901 122.32L620.429 114.328L612.44 104.46L605.354 102.653L603.27 105.363L586.389 96.1898L585.763 99.2477L583.263 98.3442L582.082 104.807L583.888 111.201L582.359 113.077L569.438 115.51L554.085 110.645L553.529 105.085L556.238 103.834L536.578 99.2477L523.726 103.556L528.311 107.518L523.101 109.672L521.225 109.394L523.726 107.518L521.85 106.962L522.476 100.777L519.141 92.5066L519.419 97.4408L517.265 99.5257L510.179 97.0933L509.623 94.0355L510.804 92.5066L507.122 95.2864L502.537 92.5066L499.133 97.0933L500.384 101.402L505.594 97.4408L507.748 100.151L500.384 105.085L496.702 102.653L498.508 105.363L497.327 106.614L487.462 111.201L480.446 110.645L480.098 111.826V114.884L482.599 117.039L478.292 114.884L474.888 117.039L485.031 101.402L491.144 101.68L504.969 81.7347L513.305 78.0514V74.9935L516.987 74.0901L515.737 72.8392L521.225 69.4339L524.977 63.3182L524.004 59.2875L524.977 57.7585L520.044 56.2296L517.265 50.392L523.101 56.2296L525.532 51.0174L525.254 47.9596H523.726L521.225 40.2455L519.419 43.9288L517.543 40.593L518.794 38.0912L508.651 27.6668L491.144 26.7633L486.281 34.4079H478.917L485.031 26.7633L486.281 22.7325L485.656 20.6477L476.138 19.3967L476.416 16.3389L467.802 21.5511L478.292 11.0572L476.416 5.28904L466.621 0.632812L459.813 3.13466L449.74 17.8678L446.961 24.8869L450.017 29.5432L448.489 28.9177V31.9755L434.664 34.1299L440.5 39.9676L439.597 45.5272L437.096 43.0254L433.414 39.3421L427.301 43.9288L428.204 46.7087L420.562 49.4885L421.187 46.7087L419.589 46.0832L415.629 49.4885L417.783 43.6509L415.907 42.3999L398.401 44.9018V47.3341L402.152 47.0562L401.527 49.7665L376.309 58.7315L368.945 67.627H362.484L367.139 69.7813L363.735 71.3103L361.581 78.0514L356.371 74.0901L355.12 77.7734L360.678 80.4837L356.093 84.7925L360.956 87.2943L362.484 91.6031L360.678 92.1591L360.956 95.2864L326.915 101.402L324.136 102.653L325.665 104.46L322.608 107.518L324.136 108.491L322.608 110.645L326.915 116.135L325.665 120.166L326.568 125.378L334.904 129.687L335.182 131.216L334.557 133.023L341.921 137.331L342.824 141.918L340.74 148.729L343.171 159.779V164.991L339.767 166.52L340.115 170.203L334.557 166.52L335.182 158.528L334.557 149.91L339.142 146.227L340.74 140.737L329.972 139.486L325.665 133.37L316.425 127.185L305.379 130.868L305.101 133.023L309.061 134.552L303.851 139.486L301.419 140.111L298.918 135.177L296.487 136.428L298.363 142.544L305.727 148.103L308.158 146.227L311.215 154.219L292.805 146.852L291.554 145.324L293.43 144.698V141.64L291.554 134.274L294.055 129.061L293.083 124.127L294.055 123.502L290.651 117.039L288.845 117.664L290.373 129.061L280.509 137.331L278.355 143.169L286.066 159.153L281.759 173.886L283.913 180.628L283.01 185.284L290.929 187.716L296.765 184.936L306.282 191.121L309.408 200.642L306.004 203.075L305.727 208.912L313.716 211.97L306.908 212.596L303.851 209.538L305.101 202.171L303.851 200.642L304.476 197.237L301.072 193.554L299.891 189.245L287.595 192.928L286.066 198.766L288.845 205.229L288.498 210.163L283.913 215.654L281.134 223.02L274.395 227.329L273.77 232.263L272.519 232.541L260.848 230.734L260.223 225.522L259.042 224.271L263.002 225.174L271.894 221.491L268.56 218.155L273.145 218.711L276.201 211.97L278.702 209.816V203.075L280.856 198.488V195.361L275.02 188.342L276.201 174.164L274.673 166.52L276.549 164.087L276.827 155.748L275.576 149.632L270.713 143.795L276.201 129.965L275.576 119.818L256.263 115.51L253.484 122.32L250.428 138.235L240.91 148.103L240.007 152.412H242.439L239.382 156.999L244.592 158.806L243.064 166.242L243.967 169.925L241.535 170.829L241.188 178.195L248.899 180.002L248.621 182.156L251.053 188.62L254.735 191.121L249.803 201.824L242.439 191.677L224.654 179.446L206.8 174.164L201.59 178.195L205.619 186.465L204.646 190.496L198.811 193.832L199.436 197.515L197.005 200.017L194.573 197.863L196.379 193.554L192.697 188.342L183.458 196.612L172.134 195.986L167.549 202.797L163.242 200.017L162.617 195.708L163.867 192.303L161.713 191.399L166.299 189.245L159.56 190.774L158.587 192.65L158.935 194.805L157.684 195.361L155.878 192.928L153.724 195.708L154.905 196.612L153.724 199.669L151.849 196.959L149.139 197.515L127.325 211.97L125.172 218.155V221.213L118.711 226.425L118.086 223.02L114.682 223.368L108.846 214.125L111 209.816L118.711 208.009L117.183 202.171L113.501 197.515L98.4256 194.179L103.636 200.017L103.358 209.19L101.83 216.001L106.137 221.491L103.358 231.638L103.636 237.753L101.482 234.07L99.3287 235.321L100.301 232.263L92.59 228.232L87.3797 235.321L77.8622 241.784L78.1401 246.093L83.9756 258.394L69.5952 253.737L67.4416 256.239L66.8163 254.085L68.6226 253.112L60.0777 248.247L57.5767 252.208L58.5493 254.988L62.5091 259.923L65.9132 258.672L68.0668 266.316L63.7596 267.915L55.7705 264.509L52.0885 259.923L46.253 258.672L47.7813 256.239L47.434 252.556L44.3773 246.093L46.5308 244.564L47.1561 237.753L29.9968 219.962L32.7061 218.711L39.1669 224.896L44.7246 225.174L45.0025 227.954L71.7488 234.695L78.7653 231.638L85.8513 224.271L87.1018 218.711L85.2261 217.53L84.6009 211.067L78.1401 203.7L69.2478 200.642L53.6169 185.562L38.5417 184.936L37.3607 181.878L35.485 183.407L35.7629 181.6L29.9968 179.099L30.8999 176.041L35.485 178.821L36.7355 176.041L29.3715 172.635L29.6494 175.415L28.7463 175.137L27.8432 177.57L23.1886 175.415V178.821L19.5067 177.57L18.6036 181.253L12.4901 187.438L9.36395 190.496L10.3365 191.121L9.36395 198.488L14.2964 203.075L18.3257 211.345L13.3933 221.491L18.8814 238.726L16.7279 246.093V252.556L18.6036 252.834L18.8814 257.143L21.6603 260.478L19.854 268.193L22.9108 272.501L26.5927 277.088V281.675L17.3531 295.504L3.5284 308.431L9.36395 307.18V310.585L8.18294 309.334L9.08606 312.114L16.7279 313.99L19.5067 316.701L12.4901 316.423L7.5577 320.106L7.83559 323.511L5.40411 327.473L0.47168 329.002L2.00004 335.187L2.97263 335.465L3.5284 337.897L4.77887 339.148L5.05676 341.024L2.97263 343.457L3.25051 344.36L5.40411 347.14L4.77887 351.449L6.30723 352.352L7.83559 355.41L8.18294 360.066L8.46082 360.622L14.2964 361.595L15.5469 362.499L15.1995 364.653L20.1319 363.124L24.4391 365.904L24.1612 368.614L25.0644 370.491L24.1612 374.174L27.4958 380.29L29.6494 382.166L29.9968 384.598L32.7061 384.32L34.2345 384.946L34.5819 386.475L35.485 386.753V388.282L32.0809 391.061L28.1211 389.811L26.5927 391.339L27.8432 393.216L29.6494 401.208L31.1778 402.111L33.6787 399.332L41.6679 399.053L45.3498 403.988V404.891L43.752 405.517L44.7246 408.852L47.7813 410.103L49.5876 409.825L51.1159 411.98L51.4633 415.941L52.7137 417.47H56.0483L57.2988 418.721H58.8272L63.1344 417.192L67.0942 421.779L69.2478 421.153L72.0266 423.03L73.9024 422.682L80.0158 425.462L79.3905 426.087L80.2937 428.52L79.3905 430.049L77.5843 430.674L79.7379 432.203L77.5843 433.454L77.8622 436.859L78.7653 437.137L77.5843 441.724H74.1802L72.6519 440.821L70.7762 442.975L69.2478 443.6L68.3447 445.129L68.6226 448.465L73.555 447.284L74.8055 448.813L69.2478 450.62L69.5952 451.87L65.5659 452.218L64.9406 453.399L69.5952 457.083L66.1911 458.056L63.1344 463.268H59.7303L58.5493 464.797L62.787 469.383L64.3848 469.106L71.1235 473.414L77.5843 479.182L82.7946 478.626L89.5333 481.059L96.6193 481.337L103.08 486.271L107.318 484.742L110.444 485.368L113.501 486.896V489.329L117.808 491.831L122.115 494.541L123.018 497.043L126.7 497.321L129.757 493.012L128.854 492.109L124.199 482.935L124.547 476.125L123.921 478.279L121.768 473.692L118.711 470.287L122.671 464.171L123.296 460.141L124.199 460.766L124.824 456.805L123.921 455.276L126.075 455.554L127.881 459.585L130.66 455.901L133.439 454.928L130.66 453.121L129.757 452.774L130.035 451.245H133.439L131.007 445.129L128.854 442.35L123.921 441.724V442.697L122.671 441.446L121.768 437.415L118.711 436.234L119.962 431.578L122.115 429.771L120.517 427.894L121.49 422.682L123.643 421.153L124.547 416.845L130.035 423.933L132.814 421.779L131.007 415.941L132.536 415.663L135.592 413.787L136.218 411.354L141.15 409.478L143.582 406.142L147.264 405.517L147.889 407.324L149.417 407.046L150.042 407.671L151.223 405.169L153.099 404.891H154.002L155.253 407.324H161.088L166.576 413.787L167.202 416.567L168.105 416.219V412.258L169.077 411.98L170.884 414.69L174.288 416.219L178.595 412.536L180.401 412.883V411.98L182.902 411.632L185.056 413.509L187.209 411.632L189.641 411.354L191.169 411.632L193.045 415.663H196.727H196.379L197.005 416.845H198.811L200.687 413.787L203.743 415.663L208.676 414.412L210.482 409.2L206.244 407.949L205.272 406.42L202.562 405.795L202.215 404.266L200.409 403.64V403.015L205.897 399.957L206.522 398.15L204.369 395.37L206.8 392.868H212.358L213.608 391.965L211.455 390.158L207.773 389.811L207.425 388.004L209.579 387.1L208.954 386.475L206.522 386.753L207.425 384.32L206.244 383.069L209.301 382.166L209.926 383.069L215.137 382.791L215.762 383.695L216.665 382.166H219.444L222.5 380.012L224.932 380.915L225.279 380.012L227.711 379.108H231.115L232.018 376.606L236.603 375.703L249.803 372.645L250.428 370.143L251.956 369.865L254.735 367.989L258.695 368.614L261.821 370.491L264.878 369.24L266.406 370.143L267.031 374.452L268.56 375.703L268.212 378.135L267.031 379.664L267.934 381.263L273.145 380.637L273.492 378.761L274.395 379.108L275.576 381.263L275.298 383.069H276.827L276.201 381.819L276.827 381.541L280.856 383.347L283.01 382.166L283.287 383.973L281.759 384.598L280.856 386.475L281.412 388.004L284.538 386.475L287.872 387.378V385.849L291.902 384.32L294.681 380.915L297.112 380.637L301.697 378.483L302.322 380.012L300.169 381.263V382.791L308.783 390.158L321.983 414.412L323.511 413.161L325.039 410.103L325.943 409.825L328.721 411.632L328.443 412.536L329.972 415.038H337.336L338.239 413.509H339.767L341.018 412.258L342.546 412.883L346.853 415.941L347.478 419.624L350.535 420.875L350.813 422.404L352.967 425.184L359.15 426.713L360.053 425.184L361.581 424.559L364.985 429.771L362.832 432.551L365.61 433.454L367.695 431.925L370.821 427.616L385.201 418.999L392.287 416.567L407.015 418.095L410.697 422.057H428.551L429.732 421.501L429.107 417.748L430.357 415.663L428.829 408.574L437.096 401.486L453.422 407.949L454.95 415.316L459.535 418.721L463.564 419.902L472.109 415.941L475.791 416.845L489.963 423.933L494.548 427.616L502.537 429.145L507.748 430.049L520.322 426.365L529.839 420.25L536.578 423.308L540.885 422.682L549.847 426.365L558.114 421.501L558.739 418.095L562.421 407.671L567.284 403.362L567.006 398.706H562.699L563.324 396.899L568.257 391.339L584.791 388.907L589.723 392.312L597.087 393.841L601.672 400.304L602.645 405.795L606.327 414.065L608.48 425.74L618.623 427.616L626.89 432.203L628.419 436.512V440.195L630.294 443.253L636.06 443.6L652.664 436.512L651.761 438.388L652.386 444.504L649.607 447.284L646.55 457.708L642.521 465.978L640.993 467.229L634.879 465.075L629.669 470.009L631.197 474.318V481.059L627.168 485.646V487.522L627.793 489.051L628.419 488.773L628.141 487.174H631.197L634.879 480.433L636.06 483.213L637.936 481.684V485.368L643.494 486.618L648.079 485.368L654.192 480.433L672.602 457.083L675.728 450.342L680.591 442.697L686.149 436.512L688.302 422.057L687.052 415.663L689.206 408.852L692.888 401.486L691.081 399.332L691.706 397.177L691.081 394.119L692.61 390.436L686.427 385.849L683.092 380.29L676.353 380.012V385.224L674.2 388.004L674.478 385.224L672.949 386.475L667.739 387.656L669.893 384.598L668.017 382.166L669.893 380.012L667.114 381.263V383.973L664.682 385.849V376.954L658.499 377.232L655.443 375.425L655.721 373.548L670.171 360.344L679.41 348.043L686.427 342.206L689.206 336.716L697.82 327.473L703.308 324.415L717.48 323.511L720.815 326.569L723.316 323.164L729.777 325.666L734.639 323.789L736.168 325.944L737.766 325.666L737.14 323.511L739.294 322.886L738.947 320.384L740.197 319.828L749.993 323.164L753.119 321.635L757.704 325.04L751.521 327.473L753.119 329.905L760.135 328.098L762.011 329.349L766.596 325.944L774.238 326.847L775.836 326.222L775.488 324.415L770 322.886L770.903 321.357L770 318.577H771.181L773.96 312.739L780.699 307.18L788.41 295.504L799.108 292.447L804.388 295.504L807.723 292.169L806.542 297.033L804.666 300.161L805.291 302.315L804.388 304.469L807.723 304.122L806.194 309.334L819.741 296.13L822.173 295.226L823.701 297.381L824.952 295.504L823.423 293.976L823.701 289.667L826.758 284.455L831.968 282.648L835.372 284.802L835.094 285.984L830.44 288.763L829.537 295.504L828.286 297.381V301.064L826.758 302.871L827.73 305.373L816.962 310.863L816.059 313.99L808.07 321.913L795.426 338.87L789.591 342.206L786.256 341.928L787.437 345.264L785.909 350.198L780.421 354.507L778.545 367.989L778.892 376.606L785.909 413.787L794.523 404.544L796.677 393.841L803.416 391.061L804.944 391.965L804.666 383.069L810.78 377.232L814.461 378.135L817.588 375.703L815.087 367.433L816.615 362.777L819.741 360.066L818.769 358.19L822.798 356.383L821.27 359.719L823.076 362.499L824.952 359.441L824.604 355.41L821.895 354.229L821.547 349.294L824.604 342.206L821.27 340.399L818.491 342.831L817.24 341.024L817.588 337.272L822.798 327.473H824.326L826.48 318.23L829.259 316.701L830.44 318.23L832.593 315.797L835.372 318.577L836.901 313.99L842.111 310.307L843.083 311.211L842.736 318.577L847.321 311.211L854.407 308.431L861.771 310.307L867.607 317.048L868.857 310.863L878.375 305.025L878.027 302.871L880.181 303.496L879.903 301.69L884.835 298.91L886.642 294.948L889.143 295.852L895.881 291.821L896.507 289.389L909.081 284.455L907.83 279.868L910.609 283.829L911.86 282.648L920.127 286.956L923.183 281.675L920.127 277.713L922.558 277.435L919.223 271.598Z" fill="white" fill-opacity="0.08"/>
</svg>